<svg width="257" height="41" viewBox="0 0 257 41" fill="none" xmlns="http://www.w3.org/2000/svg">
<path fill-rule="evenodd" clip-rule="evenodd" d="M19.9296 37.0791C28.9873 37.0791 36.3301 29.7364 36.3301 20.6787C36.3301 11.621 28.9873 4.27823 19.9296 4.27823C10.8719 4.27823 3.52921 11.621 3.52921 20.6787C3.52921 29.7364 10.8719 37.0791 19.9296 37.0791ZM19.9296 40.6083C30.9365 40.6083 39.8593 31.6855 39.8593 20.6787C39.8593 9.67183 30.9365 0.749023 19.9296 0.749023C8.9228 0.749023 0 9.67183 0 20.6787C0 31.6855 8.9228 40.6083 19.9296 40.6083Z" fill="#EFF2F7"/>
<path d="M22.4984 12.5372H20.6775C17.556 12.5372 15.9953 14.0979 15.9953 16.4391C15.9953 19.0403 17.0358 20.3409 19.3769 21.9017L21.1978 23.2023L15.9953 31.2662H11.8333L16.7756 23.9827C13.9143 21.9017 12.3535 20.0808 12.3535 16.6992C12.3535 12.5372 15.2149 9.67578 20.6775 9.67578H26.1402V31.2662H22.4984V12.5372Z" fill="#EFF2F7"/>
<path d="M50.7981 6.04931V31.749H55.2725V22.5785H57.4542C63.2967 22.5785 67.0315 19.8791 67.0315 14.1845C67.0315 9.00755 63.5555 6.04931 57.4911 6.04931H50.7981ZM57.4911 19.1025H55.2725V9.52524H57.6391C60.7822 9.52524 62.4832 10.9674 62.4832 14.1845C62.4832 17.5495 60.5973 19.1025 57.4911 19.1025ZM83.4875 30.4918V26.9049C82.1194 27.8294 79.8267 28.6429 77.682 28.6429C74.4649 28.6429 73.2446 27.1268 73.0597 24.0206H83.6724V21.691C83.6724 15.2199 80.8251 12.7793 76.4247 12.7793C71.0629 12.7793 68.5114 16.8839 68.5114 22.5045C68.5114 28.9757 71.6916 32.1188 77.3122 32.1188C80.1225 32.1188 82.1933 31.3792 83.4875 30.4918ZM76.3508 16.2552C78.5325 16.2552 79.1981 18.0672 79.1981 20.3968V20.7666H73.0597C73.1707 17.8083 74.243 16.2552 76.3508 16.2552ZM97.5291 31.749H102.521L95.4583 21.8759L101.671 13.1491H97.2332L91.0209 21.8759V13.1491H86.6206V31.749H91.0209V22.7634L97.5291 31.749ZM102.728 27.9403V31.749C102.728 31.749 103.43 32.1188 104.466 32.1188C108.237 32.1188 109.199 29.4564 109.421 23.2811L109.68 16.625H114.154V31.749H118.554V13.1491H105.945L105.575 23.0962C105.427 27.0528 105.168 28.2731 103.726 28.2731C103.097 28.2731 102.728 27.9403 102.728 27.9403ZM136.166 19.0656C136.166 14.5543 133.874 12.8533 129.214 12.8533C126.293 12.8533 124 13.7777 122.669 14.5543V18.2151C123.852 17.3276 126.441 16.3662 128.697 16.3662C130.804 16.3662 131.766 17.1057 131.766 19.1025V20.1379H131.063C124.333 20.1379 121.338 22.3566 121.338 26.1284C121.338 29.9001 123.631 32.0079 127.033 32.0079C129.621 32.0079 130.73 31.1574 131.581 30.2699H131.766C131.803 30.7506 131.951 31.3792 132.099 31.749H136.388C136.24 30.2329 136.166 28.7168 136.166 27.2007V19.0656ZM131.766 27.3117C131.211 28.1252 130.176 28.7908 128.623 28.7908C126.774 28.7908 125.849 27.7554 125.849 26.1653C125.849 24.0576 127.365 23.2811 131.137 23.2811H131.766V27.3117ZM155.568 31.749H159.857L159.783 13.1491H153.756L149.725 25.5367L146.101 13.1491H139.704V31.749H143.439V17.8453L147.47 31.749H151.056L155.568 17.8453V31.749ZM177.441 19.0656C177.441 14.5543 175.149 12.8533 170.49 12.8533C167.568 12.8533 165.276 13.7777 163.944 14.5543V18.2151C165.128 17.3276 167.716 16.3662 169.972 16.3662C172.08 16.3662 173.041 17.1057 173.041 19.1025V20.1379H172.338C165.608 20.1379 162.613 22.3566 162.613 26.1284C162.613 29.9001 164.906 32.0079 168.308 32.0079C170.896 32.0079 172.006 31.1574 172.856 30.2699H173.041C173.078 30.7506 173.226 31.3792 173.374 31.749H177.663C177.515 30.2329 177.441 28.7168 177.441 27.2007V19.0656ZM173.041 27.3117C172.486 28.1252 171.451 28.7908 169.898 28.7908C168.049 28.7908 167.125 27.7554 167.125 26.1653C167.125 24.0576 168.641 23.2811 172.412 23.2811H173.041V27.3117Z" fill="#EFF2F7"/>
<path fill-rule="evenodd" clip-rule="evenodd" d="M196.311 16.4655C196.776 14.9884 197.262 14.0364 197.262 14.0364H199.909C199.909 14.0364 199.48 15.0691 199.07 16.4655H203.115L203.077 19.0162H198.417C198.342 19.5627 198.267 20.1899 198.267 20.6761C198.267 23.7928 199.591 24.7847 201.958 24.7847C203.114 24.7847 204.288 24.562 205.462 24.1166C204.94 23.0839 204.772 21.951 204.772 20.7968C204.81 16.4247 207.568 14.3194 210.215 14.3194C212.713 14.3194 214.167 15.8986 214.167 18.2257C214.167 20.6752 211.893 23.2658 209.209 24.6623C209.469 24.8246 209.861 24.9453 210.327 24.9453C212.527 24.9453 213.981 23.1434 215.77 20.2902C218.044 16.6261 220.43 14.3194 223.86 14.3194C227.29 14.3194 229.359 16.3839 229.359 19.8856C229.359 21.1206 229.023 22.5774 228.371 23.7919C229.06 24.5407 229.47 24.8645 229.974 24.8645C231.428 24.8645 232.546 20.7152 232.919 17.0111L233.18 14.4809H235.323V17.1123C236.423 15.1898 238.176 14.3194 240.058 14.3194C241.195 14.3194 242.127 14.6432 242.91 15.1693C243.991 14.6432 245.166 14.3194 246.321 14.3194C249.341 14.3194 250.683 16.242 250.683 18.8734C250.683 20.0695 250.221 21.5951 249.873 22.7478C249.661 23.4478 249.49 24.0103 249.49 24.2781C249.49 24.8246 249.863 25.0269 250.404 25.0269C251.798 25.0269 255.036 24.0669 256.982 22.3006C256.892 18.782 256.579 14.1438 256.267 12.2345C255.501 8.02483 252.444 6.70913 249.033 6.74994C237.7 6.74994 209.46 8.02483 195.611 9.11784C192.573 9.36093 189.367 10.6562 189.031 15.3122C189.012 15.6014 189.002 15.9944 189 16.4655H196.311ZM240.021 23.4889C240.021 24.4604 240.524 24.8649 241.046 24.8649C242.165 24.8649 243.078 23.3062 243.041 21.0394C243.041 19.926 242.817 19.0157 242.482 18.3068C240.898 20.0067 240.021 22.0313 240.021 23.4889ZM207.345 20.9193C207.345 18.0652 208.762 16.7495 210.122 16.7495C210.942 16.7495 211.539 17.1745 211.539 18.2675C211.539 19.947 209.824 21.9103 207.736 22.943C207.476 22.4373 207.345 21.7693 207.345 20.9193ZM221.454 23.0643C221.454 23.9142 222.107 24.8253 223.318 24.8253C224.064 24.8253 224.828 24.5015 225.369 23.8743L224.735 23.2266C224.639 23.1294 224.547 23.0346 224.458 22.9428C223.693 22.1556 223.14 21.5871 222.572 21.5871C221.845 21.5871 221.454 22.296 221.454 23.0643H221.454ZM246.973 24.8254C246.973 26.4037 248.166 27.2945 250.049 27.2945L250.048 27.2953C253.389 27.2953 255.789 25.78 257 24.7908C256.992 25.2317 256.978 25.6141 256.954 25.9193C256.619 30.0483 253.934 31.8502 250.356 32.174C240.011 33.2865 208.938 34.6634 196.58 34.5419C192.907 34.5419 190.391 32.9636 189.701 28.9961C189.419 27.4311 189.135 22.6154 189.036 19.017H195.732C195.657 19.5635 195.62 20.1916 195.62 20.7985C195.62 25.1909 198.098 27.2554 201.454 27.2554C203.187 27.2554 204.995 26.8713 206.747 26.0817C207.605 26.7497 208.836 27.2554 210.215 27.2554C213.328 27.2554 215.378 25.5148 217.484 22.0334C219.758 18.309 221.249 16.7502 223.896 16.7502C225.704 16.7502 226.804 17.9036 226.804 19.8873C226.804 20.5554 226.711 21.1427 226.487 21.7495L226.301 21.5473C224.735 19.8474 223.878 19.1794 222.517 19.1385C220.523 19.1385 218.939 20.6157 218.901 23.0244C218.864 25.3515 220.43 27.2545 222.946 27.2545C224.642 27.2545 225.909 26.6876 226.935 25.6753C227.866 26.6876 228.724 27.2545 229.917 27.2545C231.204 27.2545 232.359 26.5058 233.179 23.8335V26.991H235.323V24.522C235.323 19.4615 237.671 16.6686 240.02 16.6686C240.244 16.6686 240.523 16.7085 240.747 16.7493C238.79 18.5912 237.597 21.1418 237.597 23.5505C237.597 25.7774 238.715 27.2953 240.821 27.2953C243.916 27.3353 245.5 24.6639 245.5 21.1214C245.5 19.6842 245.184 18.2274 244.531 16.972C245.054 16.7902 245.594 16.6686 246.116 16.6686C247.57 16.6686 248.278 17.4378 248.278 18.9762C248.278 20.0955 247.923 21.1487 247.583 22.156C247.272 23.0791 246.973 23.9637 246.973 24.8254Z" fill="white"/>
</svg>
