<svg width="220" height="30" viewBox="0 0 220 30" fill="none" xmlns="http://www.w3.org/2000/svg">
<path d="M11.9742 24.9375H15.6609V3.76171H10.2984C4.90547 3.76171 2.07188 6.53437 2.07188 10.6172C2.07188 13.8773 3.62578 15.7969 6.39844 17.7773L1.58438 24.9375H5.57578L10.9383 16.9242L9.07969 15.675C6.825 14.1516 5.72813 12.9633 5.72813 10.4039C5.72813 8.14922 7.3125 6.62578 10.3289 6.62578H11.9742V24.9375ZM83.0578 25.2422C84.7336 25.2422 85.9219 24.9375 86.8055 24.2977V21.3422C85.8914 21.982 84.7945 22.3781 83.2711 22.3781C80.6813 22.3781 79.6149 20.3672 79.6149 17.1984C79.6149 13.8773 80.925 12.1711 83.3016 12.1711C84.7031 12.1711 86.0742 12.6586 86.8055 13.1156V10.0383C86.0438 9.61172 84.7031 9.30703 82.9055 9.30703C78.2742 9.30703 75.8672 12.6281 75.8672 17.2898C75.8672 22.4086 78.2133 25.2422 83.0578 25.2422ZM60.3891 23.9016V20.9461C59.2617 21.7078 57.3727 22.3781 55.6055 22.3781C52.9547 22.3781 51.9492 21.1289 51.7969 18.5695H60.5414V16.65C60.5414 11.318 58.1953 9.30703 54.5695 9.30703C50.1516 9.30703 48.0492 12.6891 48.0492 17.3203C48.0492 22.6523 50.6695 25.2422 55.3008 25.2422C57.6164 25.2422 59.3227 24.6328 60.3891 23.9016ZM71.9672 24.9375H76.0805L70.2609 16.8023L75.3797 9.61172H71.7234L66.6047 16.8023V9.61172H62.9789V24.9375H66.6047V17.5336L71.9672 24.9375ZM47.1656 22.0734H45.5508V9.61172H34.9781V10.9219C34.9781 14.6695 34.7344 19.5141 33.4547 22.0734H32.3274V28.4414H35.6789V24.9375H43.8141V28.4414H47.1656V22.0734ZM27.1781 9.61172V15.675H22.3336V9.61172H18.7078V24.9375H22.3336V18.5391H27.1781V24.9375H30.8039V9.61172H27.1781ZM54.5086 12.1711C56.3063 12.1711 56.8547 13.6641 56.8547 15.5836V15.8883H51.7969C51.8883 13.4508 52.7719 12.1711 54.5086 12.1711ZM41.925 22.0734H36.8063C37.8117 19.7578 38.0859 15.5836 38.0859 12.9328V12.4758H41.925V22.0734Z" fill="white"/>
<mask id="mask0_379_22628" style="mask-type:alpha" maskUnits="userSpaceOnUse" x="93" y="0" width="30" height="30">
<circle cx="108.047" cy="15" r="14.0625" fill="white"/>
</mask>
<g mask="url(#mask0_379_22628)">
<rect x="93.9844" y="0.9375" width="28.125" height="28.125" fill="url(#paint0_linear_379_22628)"/>
<path fill-rule="evenodd" clip-rule="evenodd" d="M105.541 29.0626H93.9844V29.0381L110.937 13.4803L103.693 15.2406C101.667 15.7331 99.6462 14.4846 99.1801 12.4521C98.7139 10.4195 99.9787 8.37265 102.005 7.88021L122.109 2.99438V25.5127L121.048 28.6708C121.003 28.8056 120.951 28.9363 120.892 29.0626H113.983C113.618 28.241 113.548 27.2841 113.859 26.3586L116.255 19.2302L105.541 29.0626Z" fill="url(#paint1_linear_379_22628)"/>
<path fill-rule="evenodd" clip-rule="evenodd" d="M105.541 29.0626H93.9844V29.0381L110.937 13.4803L103.693 15.2406C101.667 15.7331 99.6462 14.4846 99.1801 12.4521C98.7139 10.4195 99.9787 8.37265 102.005 7.88021L122.109 2.99438V25.5127L121.048 28.6708C121.003 28.8056 120.951 28.9363 120.892 29.0626H113.983C113.618 28.241 113.548 27.2841 113.859 26.3586L116.255 19.2302L105.541 29.0626Z" fill="url(#paint2_linear_379_22628)"/>
</g>
<path d="M131.798 29.3555V24.9375H142.584V29.3555H146.027V22.0734H144.047V3.76172H131.616L131.311 12.4758C131.159 17.5031 130.763 20.4586 129.788 22.0734H128.355V29.3555H131.798ZM134.784 12.9633L134.998 6.62578H140.36V22.0734H133.505C134.145 20.6109 134.632 17.9906 134.784 12.9633ZM148.472 9.61172V24.9375H151.702L157.247 15.4617V24.9375H160.751V9.61172H157.521L151.976 19.0875V9.61172H148.472ZM167.147 9.61172H163.796V29.3555H167.421V23.1398C168.335 24.5109 169.676 25.2422 171.23 25.2422C174.764 25.2422 177.202 22.4086 177.202 17.2594C177.202 12.1406 174.825 9.30703 171.413 9.30703C169.707 9.30703 168.305 10.0992 167.33 11.5922L167.147 9.61172ZM170.316 22.3781C168.396 22.3781 167.421 20.8242 167.421 17.2898C167.421 13.725 168.457 12.1711 170.499 12.1711C172.479 12.1711 173.454 13.725 173.454 17.2594C173.454 20.8242 172.418 22.3781 170.316 22.3781ZM191.356 23.9016V20.9461C190.228 21.7078 188.339 22.3781 186.572 22.3781C183.921 22.3781 182.916 21.1289 182.763 18.5695H191.508V16.65C191.508 11.318 189.162 9.30703 185.536 9.30703C181.118 9.30703 179.016 12.6891 179.016 17.3203C179.016 22.6523 181.636 25.2422 186.267 25.2422C188.583 25.2422 190.289 24.6328 191.356 23.9016ZM185.475 12.1711C187.273 12.1711 187.821 13.6641 187.821 15.5836V15.8883H182.763C182.855 13.4508 183.738 12.1711 185.475 12.1711ZM202.925 24.9375H207.039L201.219 16.8023L206.338 9.61172H202.682L197.563 16.8023V9.61172H193.937V24.9375H197.563V17.5336L202.925 24.9375ZM219.194 12.4758V9.61172H207.037V12.4758H211.303V24.9375H214.929V12.4758H219.194Z" fill="white"/>
<defs>
<linearGradient id="paint0_linear_379_22628" x1="122.109" y1="27.8513" x2="78.0469" y2="-13.0472" gradientUnits="userSpaceOnUse">
<stop offset="0.0101305" stop-color="#3E3BA0"/>
<stop offset="1" stop-color="#498BFF"/>
</linearGradient>
<linearGradient id="paint1_linear_379_22628" x1="170.644" y1="38.468" x2="80.5945" y2="49.0598" gradientUnits="userSpaceOnUse">
<stop stop-color="#FFB800"/>
<stop offset="1" stop-color="#FFF11D"/>
</linearGradient>
<linearGradient id="paint2_linear_379_22628" x1="93.9844" y1="26.3279" x2="162.07" y2="-10.0003" gradientUnits="userSpaceOnUse">
<stop stop-color="#FFF11D"/>
<stop offset="1" stop-color="#FFB800"/>
</linearGradient>
</defs>
</svg>
