<svg width="153" height="30" viewBox="0 0 153 30" fill="none" xmlns="http://www.w3.org/2000/svg">
<g clip-path="url(#clip0_379_22642)">
<mask id="mask0_379_22642" style="mask-type:luminance" maskUnits="userSpaceOnUse" x="0" y="0" width="153" height="30">
<path d="M152.499 0H0V30H152.499V0Z" fill="white"/>
</mask>
<g mask="url(#mask0_379_22642)">
<path fill-rule="evenodd" clip-rule="evenodd" d="M43.1672 12.2554L50.8331 12.2501C55.6661 12.2501 58.1656 14.4162 58.1672 18.2491C58.1672 20.916 56.8514 24.2498 50.8419 24.2498H37.5V5.75024H56.8319V9.91652H43.1656L43.1672 12.2554ZM50.1664 20.0817C51.6675 20.0817 52.5 19.415 52.5 18.2491C52.5 17.0832 51.6656 16.4164 50.1664 16.4164H43.1656V20.0817H50.1664ZM95.3322 20.0827V20.2485C95.3322 22.9155 92.4994 24.5824 87.1672 24.5824H86.5006C80.8331 24.5824 78.3336 22.4146 78.3336 19.6153V19.4178L83.8336 19.416C83.9992 20.9153 85.3328 21.2487 86.9997 21.2487C88.8694 21.2487 89.8325 20.9153 89.8325 19.9152C89.8325 18.8992 89.1586 18.5834 87.7369 18.5834L84.8336 18.5817V15.5813H87.6664C88.8342 15.5813 89.3333 15.248 89.3333 14.4154C89.3333 13.5811 88.5008 13.0819 86.8339 13.0819C85.1669 13.0819 84.3361 13.5811 84.167 14.5812H78.4994V14.4119C78.4994 11.5809 81.8333 10.0816 86.6664 10.0816H86.9997C91.8328 10.0816 94.8331 11.415 94.8331 13.7487V14.082C94.8331 16.0823 92.9317 16.8354 91.7656 17.0842C93.1856 17.3575 95.3322 17.9167 95.3322 20.0827ZM127.886 19.9152H133.499C133.499 21.0829 132.479 24.5824 125.006 24.5806H124.327C117.363 24.5806 115.664 20.8306 115.664 17.5057V17.1565C115.664 13.7487 117.164 10.0816 124.33 10.0816H124.831C132.331 10.0816 133.497 13.9145 133.497 17.9061V18.4141L121.152 18.4124C121.323 20.0792 122.499 21.0811 124.937 21.0811C127.336 21.0811 127.679 20.352 127.853 19.9852L127.853 19.9847L127.854 19.9829C127.865 19.9586 127.876 19.9359 127.886 19.9152ZM127.833 15.7471C127.833 14.5812 127.167 13.4153 124.5 13.4153C122.166 13.4153 121.332 14.4154 121.166 15.7489L127.833 15.7471ZM146.979 18.7502H152.499C152.499 20.7504 151.166 24.5833 143.999 24.5815H143.666C136.499 24.5815 135 20.2495 135 17.5825V17.0833C135 14.4181 136.416 10.0825 143.666 10.0843H143.999C151.079 10.0825 152.499 13.7514 152.499 15.7516H147C146.857 14.9173 146.165 13.7514 143.999 13.7514H143.666C141.5 13.7514 140.5 15.4182 140.5 17.2509V17.4167C140.5 19.2511 141.666 20.7504 143.666 20.7504H143.999C146.333 20.7504 146.834 19.4169 146.979 18.7502ZM108.665 24.2503H113.999V10.418H108.665V15.4168H102.333V10.418H96.9992V24.2503H102.333V19.2497H108.665V24.2503ZM71.4986 24.2503H76.8325V10.418H71.3328L65.1664 18.4172V10.418H59.8325V24.2503H65.3322L71.4986 16.2511V24.2503Z" fill="white"/>
<path fill-rule="evenodd" clip-rule="evenodd" d="M30 15C30 23.2843 23.2843 30 15 30C6.71572 30 0 23.2843 0 15C0 6.71572 6.71572 0 15 0C23.2843 0 30 6.71572 30 15ZM19.8383 23.551V6.43081H15.5292C11.3612 6.43081 8.87411 8.50158 8.87411 11.9694C8.87411 14.6963 10.2693 16.2538 12.3648 17.7549L12.4001 17.7796L12.3754 17.8149L8.51428 23.5669H11.661L15.9772 17.1164L14.4991 16.1198C12.6382 14.8568 11.7528 13.8885 11.7528 11.793C11.7528 9.83861 13.1709 8.67092 15.5451 8.67092H16.8839H16.9279V8.71503V23.551H19.8383Z" fill="white"/>
</g>
</g>
<defs>
<clipPath id="clip0_379_22642">
<rect width="152.5" height="30" fill="white"/>
</clipPath>
</defs>
</svg>
